<?xml version="1.0" encoding="UTF-8"?>
<!DOCTYPE svg PUBLIC "-//W3C//DTD SVG 1.1//EN" "http://www.w3.org/Graphics/SVG/1.1/DTD/svg11.dtd">
<!-- Creator: CorelDRAW X7 -->
<svg xmlns="http://www.w3.org/2000/svg" xml:space="preserve" width="480px" height="420px" version="1.1" style="shape-rendering:geometricPrecision; text-rendering:geometricPrecision; image-rendering:optimizeQuality; fill-rule:evenodd; clip-rule:evenodd"
viewBox="0 0 480 420"
 xmlns:xlink="http://www.w3.org/1999/xlink">
 <defs>
  <style type="text/css">
   <![CDATA[
    .str0 {stroke:#FEFEFE;stroke-width:8.85827;stroke-linecap:round;stroke-linejoin:round}
    .str1 {stroke:#FEFEFE;stroke-width:5.90551;stroke-linecap:round;stroke-linejoin:round}
    .str2 {stroke:#FEFEFE;stroke-width:2.95276;stroke-linecap:round;stroke-linejoin:round}
    .fil0 {fill:none}
    .fil1 {fill:white}
   ]]>
  </style>
 </defs>
 <g id="Layer_x0020_1">
  <metadata id="CorelCorpID_0Corel-Layer"/>
  <path class="fil0 str0" d="M416 59l-7 23m15 -8l-23 -6"/>
  <path class="fil0 str1" d="M90 105l-12 45m29 -16l-45 -12"/>
  <path class="fil0 str2" d="M282 13l-12 45m28 -16l-45 -12"/>
  <path class="fil0 str0" d="M59 58l-6 23m14 -9l-23 -6"/>
  <path class="fil0 str2" d="M419 135l-12 45m29 -16l-45 -12"/>
  <path class="fil1" d="M254 69c-4,0 -9,0 -14,0 -78,0 -141,63 -141,141 0,11 1,22 4,33 2,-3 4,-6 7,-8 12,-13 29,-20 48,-20 14,0 27,4 38,11 5,-3 11,-6 16,-7 0,-3 0,-6 0,-9 0,-51 20,-94 49,-117 7,-2 9,-21 -7,-24zm-147 189c9,24 24,45 43,61 0,0 0,0 1,0l0 0c0,-1 0,-2 -1,-3 0,-4 0,-8 0,-11 0,-25 10,-48 26,-64 3,-3 6,-6 9,-8 -8,-4 -17,-7 -27,-7 -15,0 -30,7 -40,17 -4,4 -8,10 -11,15z"/>
  <path class="fil1" d="M206 234c8,8 15,19 18,31 1,-1 2,-1 4,-1 3,-1 7,-2 11,-2 12,0 23,5 31,13 8,8 13,20 13,32 0,12 -5,23 -13,31 -8,8 -19,13 -31,13l-81 0 -33 0c-1,2 -1,4 -1,6 0,7 3,14 8,18 5,5 11,8 19,8l89 0 109 0c13,0 24,-5 33,-13 8,-9 13,-20 13,-33 0,-13 -5,-24 -13,-33 -9,-8 -20,-13 -33,-13 -4,0 -8,0 -12,1 -2,1 -5,2 -7,3 0,1 0,1 0,2 1,3 1,5 1,8 0,3 -1,7 -1,11 -1,4 -1,7 -2,11 -1,3 -4,5 -7,4 -4,-1 -5,-4 -5,-7 1,-3 2,-6 2,-10 1,-3 1,-6 1,-9 0,-3 0,-5 0,-7 -1,-2 -1,-4 -1,-6l0 0 0 0c-3,-19 -13,-35 -27,-47 -14,-12 -31,-19 -51,-19 -12,0 -24,3 -34,8zm-75 106l27 0 81 0c9,0 17,-4 23,-10 6,-6 9,-14 9,-23 0,-9 -3,-17 -9,-23 -6,-6 -14,-10 -23,-10 -3,0 -6,1 -9,1 -1,1 -2,1 -4,2 0,0 0,0 0,1 1,1 1,3 1,5 0,3 0,6 -1,8 0,3 -1,6 -1,9 -1,3 -4,5 -8,4 -3,-1 -5,-4 -4,-7 1,-2 1,-5 1,-7 1,-2 1,-5 1,-7 0,-2 0,-3 0,-5 0,-1 -1,-3 -1,-4 0,0 0,0 0,0 -2,-14 -9,-25 -19,-34 -4,3 -7,6 -10,9 -15,14 -23,34 -23,56 0,3 0,6 0,9 1,4 1,7 2,10 1,3 -1,6 -4,7 -1,0 -2,0 -3,0 -1,0 -2,0 -3,0 -1,-1 -2,-1 -3,-1 -8,0 -14,3 -19,8 -1,1 -1,1 -1,2z"/>
  <path class="fil1" d="M271 307c0,-9 -3,-17 -9,-23 -6,-6 -14,-10 -23,-10 -3,0 -6,1 -9,1 -1,1 -2,1 -4,2 0,0 0,0 0,1 1,1 1,3 1,5 0,3 0,6 -1,8 0,3 -1,6 -1,9 -1,3 -4,5 -8,4 -3,-1 -5,-4 -4,-7 1,-2 1,-5 1,-7 1,-2 1,-5 1,-7 0,-2 0,-3 0,-5 0,-1 -1,-3 -1,-4 0,0 0,0 0,0 -2,-14 -9,-26 -19,-34 -10,-9 -23,-14 -37,-14 -15,0 -30,7 -40,17 -10,10 -16,24 -16,40 0,2 0,5 0,7 0,2 1,5 1,7 1,3 -1,6 -4,7 -1,0 -2,0 -3,0 -1,0 -1,0 -2,0 -1,0 -1,0 -2,0 -5,0 -10,2 -13,5 -3,3 -5,8 -5,13 0,5 2,9 5,12l0 0 0 0c3,4 8,6 13,6l66 0 81 0c9,0 17,-4 23,-10 6,-6 9,-14 9,-23z"/>
 </g>
</svg>
