<?xml version="1.0" encoding="UTF-8"?>
<!DOCTYPE svg PUBLIC "-//W3C//DTD SVG 1.1//EN" "http://www.w3.org/Graphics/SVG/1.1/DTD/svg11.dtd">
<!-- Creator: CorelDRAW X7 -->
<svg xmlns="http://www.w3.org/2000/svg" xml:space="preserve" width="480px" height="420px" version="1.1" style="shape-rendering:geometricPrecision; text-rendering:geometricPrecision; image-rendering:optimizeQuality; fill-rule:evenodd; clip-rule:evenodd"
viewBox="0 0 480 420"
 xmlns:xlink="http://www.w3.org/1999/xlink">
 <defs>
  <style type="text/css">
   <![CDATA[
    .str0 {stroke:#FEFEFE;stroke-width:8.85827;stroke-linecap:round;stroke-linejoin:round}
    .str1 {stroke:#FEFEFE;stroke-width:5.90551;stroke-linecap:round;stroke-linejoin:round}
    .str2 {stroke:#FEFEFE;stroke-width:2.95276;stroke-linecap:round;stroke-linejoin:round}
    .fil0 {fill:none}
    .fil1 {fill:white}
   ]]>
  </style>
 </defs>
 <g id="Layer_x0020_1">
  <metadata id="CorelCorpID_0Corel-Layer"/>
  <g id="_317103656">
   <path class="fil0 str0" d="M416 59l-7 23m15 -8l-23 -6"/>
   <path class="fil0 str1" d="M90 105l-12 45m29 -16l-45 -12"/>
   <path class="fil0 str2" d="M282 13l-12 45m28 -16l-45 -12"/>
   <path class="fil0 str0" d="M59 58l-6 23m14 -9l-23 -6"/>
   <path class="fil0 str2" d="M91 332l-12 45m28 -17l-45 -12"/>
   <path class="fil0 str2" d="M419 135l-12 45m29 -16l-45 -12"/>
  </g>
  <path class="fil1" d="M254 69c-4,0 -9,0 -14,0 -78,0 -141,63 -141,141 0,69 49,126 114,139 0,-3 -1,-5 -2,-8 0,-1 0,-2 0,-4 -4,-23 4,-41 15,-53 1,-1 1,-1 1,-2 -9,-20 -15,-45 -15,-72 0,-51 20,-94 49,-117 7,-2 9,-21 -7,-24z"/>
  <path class="fil1" d="M292 134c66,-110 208,14 113,95 -11,-5 -16,-7 -30,-9 -2,-1 -6,2 -6,5 1,3 4,4 6,6 20,4 63,19 64,77 1,25 -21,66 -57,73l-109 1c-29,-3 -52,-25 -51,-54 1,-48 44,-66 84,-48 4,2 8,-6 6,-9 -7,-8 -37,-13 -48,-9 -60,-56 0,-136 61,-114 6,2 11,-7 6,-10 -3,-2 -12,-4 -17,-5 -13,-2 -22,1 -22,1z"/>
 </g>
</svg>
