<?xml version="1.0" encoding="UTF-8"?>
<!DOCTYPE svg PUBLIC "-//W3C//DTD SVG 1.1//EN" "http://www.w3.org/Graphics/SVG/1.1/DTD/svg11.dtd">
<!-- Creator: CorelDRAW X7 -->
<svg xmlns="http://www.w3.org/2000/svg" xml:space="preserve" width="480px" height="420px" version="1.1" style="shape-rendering:geometricPrecision; text-rendering:geometricPrecision; image-rendering:optimizeQuality; fill-rule:evenodd; clip-rule:evenodd"
viewBox="0 0 480 420"
 xmlns:xlink="http://www.w3.org/1999/xlink">
 <defs>
  <style type="text/css">
   <![CDATA[
    .str3 {stroke:#FEFEFE;stroke-width:8.85827;stroke-linecap:round;stroke-linejoin:round}
    .str0 {stroke:#FEFEFE;stroke-width:8.85827;stroke-linecap:round;stroke-linejoin:round}
    .str4 {stroke:#FEFEFE;stroke-width:5.90551;stroke-linecap:round;stroke-linejoin:round}
    .str1 {stroke:#FEFEFE;stroke-width:5.90551;stroke-linecap:round;stroke-linejoin:round}
    .str5 {stroke:#FEFEFE;stroke-width:2.95276;stroke-linecap:round;stroke-linejoin:round}
    .str2 {stroke:#FEFEFE;stroke-width:2.95276;stroke-linecap:round;stroke-linejoin:round}
    .fil2 {fill:none}
    .fil4 {fill:none;fill-rule:nonzero}
    .fil0 {fill:white}
    .fil3 {fill:#FEFEFE;fill-rule:nonzero}
    .fil1 {fill:white;fill-rule:nonzero}
    .fil5 {fill:white;fill-opacity:0.000000}
    .fil6 {fill:white;fill-opacity:0.101961}
    .fil7 {fill:white;fill-opacity:0.200000}
    .fil8 {fill:white;fill-opacity:0.301961}
    .fil9 {fill:white;fill-opacity:0.400000}
    .fil10 {fill:white;fill-opacity:0.501961}
    .fil11 {fill:white;fill-opacity:0.600000}
    .fil12 {fill:white;fill-opacity:0.701961}
    .fil13 {fill:white;fill-opacity:0.800000}
    .fil14 {fill:white;fill-opacity:0.901961}
   ]]>
  </style>
   <clipPath id="id0" style="clip-rule:nonzero">
    <path d="M340 0l0 2c-2,33 -17,58 -38,74 -21,16 -49,23 -76,23l-1 0c-20,27 -56,44 -96,51 -43,8 -91,5 -129,-6l0 -25c36,12 83,16 125,8 37,-7 69,-22 84,-46 2,-3 6,-6 11,-5 1,0 3,0 6,0 23,0 45,-6 62,-19 16,-12 27,-31 28,-56l0 -1 24 0zm-95 0c2,8 2,15 1,22 -1,14 -6,25 -14,34 -8,8 -18,14 -30,18 -8,3 -16,4 -25,4 -17,19 -41,31 -69,36 -35,7 -75,6 -108,0l0 -24c31,6 70,8 103,1 25,-5 46,-15 59,-32 2,-3 6,-5 11,-5 7,1 15,0 22,-3 8,-2 15,-6 19,-11 5,-5 8,-12 9,-20 0,-6 0,-12 -3,-20l25 0zm-93 0c1,3 2,6 2,8 2,12 0,23 -6,34 -6,11 -16,20 -30,28 0,0 -1,0 -1,0 -25,13 -63,20 -117,14l0 -24c50,6 85,1 106,-11 0,0 1,0 1,0 10,-5 17,-12 21,-18 3,-6 4,-13 3,-18 -1,-5 -3,-9 -6,-13l27 0z"/>
   </clipPath>
 </defs>
 <g id="Layer_x0020_1">
  <metadata id="CorelCorpID_0Corel-Layer"/>
  <path class="fil0" d="M395 337c0,-13 -5,-24 -13,-33 -9,-8 -20,-13 -33,-13 -4,0 -8,0 -12,1 -2,1 -5,2 -7,3 0,1 0,1 0,2 1,3 1,5 1,8 0,3 -1,7 -1,11 -1,4 -1,7 -2,11 -1,3 -4,5 -7,4 -4,-1 -5,-4 -5,-7 1,-3 2,-6 2,-10 1,-3 1,-6 1,-9 0,-3 0,-5 0,-7 -1,-2 -1,-4 -1,-6l0 0 0 0c-3,-19 -13,-35 -27,-47 -14,-12 -31,-19 -51,-19 -13,0 -26,3 -37,10l0 0c10,8 18,20 21,33 1,0 3,0 4,-1 3,0 7,-1 11,-1 12,0 23,5 31,13 8,8 13,19 13,32 0,12 -5,23 -13,31 -8,8 -19,13 -31,13l-81 0 -34 0 0 1c0,7 3,14 8,18 5,5 11,8 19,8l89 0 109 0c13,0 24,-5 33,-13 8,-9 13,-20 13,-33zm-203 -95c-2,2 -5,5 -7,7 -15,14 -23,34 -23,56 0,3 0,6 0,9 1,4 1,7 2,10 1,3 -1,6 -4,7 -1,0 -2,0 -3,0 -1,0 -2,0 -3,0 -1,-1 -2,-1 -3,-1 -8,0 -14,3 -19,8 -2,2 -3,4 -5,6l31 0 81 0c9,0 17,-3 23,-9 6,-6 9,-14 9,-23 0,-9 -3,-18 -9,-24 -6,-5 -14,-9 -23,-9 -3,0 -6,0 -8,1 -2,0 -3,1 -5,1 0,1 1,1 1,1 0,2 0,4 0,6 0,2 0,5 -1,8 0,3 -1,6 -1,9 -1,3 -4,5 -8,4 -3,-1 -5,-4 -4,-7 1,-3 1,-5 2,-7 0,-3 0,-5 0,-7 0,-2 0,-3 0,-5 0,-1 -1,-3 -1,-4 0,0 0,-1 0,-1 -2,-13 -9,-25 -19,-33 -1,-1 -2,-2 -3,-3z"/>
  <path class="fil1" d="M271 312c0,-9 -3,-18 -9,-24 -6,-5 -14,-9 -23,-9 -3,0 -6,0 -8,1 -2,0 -3,1 -5,1 0,1 1,1 1,1 0,2 0,4 0,6 0,2 0,5 -1,8 0,3 -1,6 -1,9 -1,3 -4,5 -8,4 -3,-1 -5,-4 -4,-7 1,-3 1,-5 2,-7 0,-3 0,-5 0,-7 0,-2 0,-3 0,-5 0,-1 -1,-3 -1,-4 0,0 0,-1 0,-1 -2,-13 -9,-25 -19,-33 -10,-9 -23,-14 -37,-14 -15,0 -29,6 -40,17 -10,10 -16,24 -16,40 0,2 0,4 0,7 0,2 1,4 1,7 1,3 -1,6 -4,7 -1,0 -2,0 -3,0 -1,0 -1,0 -2,-1 0,0 -1,0 -2,0 -5,0 -9,2 -13,6 -3,3 -5,7 -5,12 0,5 2,10 5,13l0 0 0 0c4,3 8,5 13,5l66 0 81 0c9,0 17,-3 23,-9 6,-6 9,-14 9,-23z"/>
  <g id="_367890376">
   <path class="fil2 str0" d="M416 59l-7 23m15 -8l-23 -6"/>
   <path class="fil2 str1" d="M90 105l-12 45m29 -16l-45 -12"/>
   <path class="fil2 str2" d="M282 13l-12 45m28 -16l-45 -12"/>
   <path class="fil2 str0" d="M59 58l-6 23m14 -9l-23 -6"/>
   <path class="fil2 str2" d="M91 332l-12 45m28 -17l-45 -12"/>
   <path class="fil2 str2" d="M419 135l-12 45m29 -16l-45 -12"/>
  </g>
  <g style="clip-path:url(#id0)">
   <polygon class="fil3" points="-300,-300 640,-300 640,455 -300,455 "/>
   <g id="Layer_x0020_1_0">
    <metadata id="CorelCorpID_1Corel-Layer"/>
    <path id="1" class="fil0" d="M395 337c0,-13 -5,-24 -13,-33 -9,-8 -20,-13 -33,-13 -4,0 -8,0 -12,1 -2,1 -5,2 -7,3 0,1 0,1 0,2 1,3 1,5 1,8 0,3 -1,7 -1,11 -1,4 -1,7 -2,11 -1,3 -4,5 -7,4 -4,-1 -5,-4 -5,-7 1,-3 2,-6 2,-10 1,-3 1,-6 1,-9 0,-3 0,-5 0,-7 -1,-2 -1,-4 -1,-6l0 0 0 0c-3,-19 -13,-35 -27,-47 -14,-12 -31,-19 -51,-19 -13,0 -26,3 -37,10l0 0c10,8 18,20 21,33 1,0 3,0 4,-1 3,0 7,-1 11,-1 12,0 23,5 31,13 8,8 13,19 13,32 0,12 -5,23 -13,31 -8,8 -19,13 -31,13l-81 0 -34 0 0 1c0,7 3,14 8,18 5,5 11,8 19,8l89 0 109 0c13,0 24,-5 33,-13 8,-9 13,-20 13,-33zm-203 -95c-2,2 -5,5 -7,7 -15,14 -23,34 -23,56 0,3 0,6 0,9 1,4 1,7 2,10 1,3 -1,6 -4,7 -1,0 -2,0 -3,0 -1,0 -2,0 -3,0 -1,-1 -2,-1 -3,-1 -8,0 -14,3 -19,8 -2,2 -3,4 -5,6l31 0 81 0c9,0 17,-3 23,-9 6,-6 9,-14 9,-23 0,-9 -3,-18 -9,-24 -6,-5 -14,-9 -23,-9 -3,0 -6,0 -8,1 -2,0 -3,1 -5,1 0,1 1,1 1,1 0,2 0,4 0,6 0,2 0,5 -1,8 0,3 -1,6 -1,9 -1,3 -4,5 -8,4 -3,-1 -5,-4 -4,-7 1,-3 1,-5 2,-7 0,-3 0,-5 0,-7 0,-2 0,-3 0,-5 0,-1 -1,-3 -1,-4 0,0 0,-1 0,-1 -2,-13 -9,-25 -19,-33 -1,-1 -2,-2 -3,-3z"/>
    <path class="fil1" d="M271 312c0,-9 -3,-18 -9,-24 -6,-5 -14,-9 -23,-9 -3,0 -6,0 -8,1 -2,0 -3,1 -5,1 0,1 1,1 1,1 0,2 0,4 0,6 0,2 0,5 -1,8 0,3 -1,6 -1,9 -1,3 -4,5 -8,4 -3,-1 -5,-4 -4,-7 1,-3 1,-5 2,-7 0,-3 0,-5 0,-7 0,-2 0,-3 0,-5 0,-1 -1,-3 -1,-4 0,0 0,-1 0,-1 -2,-13 -9,-25 -19,-33 -10,-9 -23,-14 -37,-14 -15,0 -29,6 -40,17 -10,10 -16,24 -16,40 0,2 0,4 0,7 0,2 1,4 1,7 1,3 -1,6 -4,7 -1,0 -2,0 -3,0 -1,0 -1,0 -2,-1 0,0 -1,0 -2,0 -5,0 -9,2 -13,6 -3,3 -5,7 -5,12 0,5 2,10 5,13l0 0 0 0c4,3 8,5 13,5l66 0 81 0c9,0 17,-3 23,-9 6,-6 9,-14 9,-23z"/>
    <g id="_367890376">
     <path class="fil2 str3" d="M416 59l-7 23m15 -8l-23 -6"/>
     <path class="fil2 str4" d="M90 105l-12 45m29 -16l-45 -12"/>
     <path class="fil2 str5" d="M282 13l-12 45m28 -16l-45 -12"/>
     <path class="fil2 str3" d="M59 58l-6 23m14 -9l-23 -6"/>
     <path class="fil2 str5" d="M91 332l-12 45m28 -17l-45 -12"/>
     <path class="fil2 str5" d="M419 135l-12 45m29 -16l-45 -12"/>
    </g>
   </g>
  </g>
  <path class="fil4" d="M340 0l0 2c-2,33 -17,58 -38,74 -21,16 -49,23 -76,23l-1 0c-20,27 -56,44 -96,51 -43,8 -91,5 -129,-6l0 -25c36,12 83,16 125,8 37,-7 69,-22 84,-46 2,-3 6,-6 11,-5 1,0 3,0 6,0 23,0 45,-6 62,-19 16,-12 27,-31 28,-56l0 -1 24 0zm-95 0c2,8 2,15 1,22 -1,14 -6,25 -14,34 -8,8 -18,14 -30,18 -8,3 -16,4 -25,4 -17,19 -41,31 -69,36 -35,7 -75,6 -108,0l0 -24c31,6 70,8 103,1 25,-5 46,-15 59,-32 2,-3 6,-5 11,-5 7,1 15,0 22,-3 8,-2 15,-6 19,-11 5,-5 8,-12 9,-20 0,-6 0,-12 -3,-20l25 0zm-93 0c1,3 2,6 2,8 2,12 0,23 -6,34 -6,11 -16,20 -30,28 0,0 -1,0 -1,0 -25,13 -63,20 -117,14l0 -24c50,6 85,1 106,-11 0,0 1,0 1,0 10,-5 17,-12 21,-18 3,-6 4,-13 3,-18 -1,-5 -3,-9 -6,-13l27 0z"/>
  <g id="_367917496">
   <polygon class="fil5" points="480,221 0,221 0,210 480,210 "/>
   <g>
    <path class="fil6" d="M480 242c-160,0 -320,0 -480,0 0,-4 0,-7 0,-11 160,0 320,0 480,0 0,4 0,7 0,11z"/>
    <path class="fil7" d="M480 263c-160,0 -320,0 -480,0 0,-4 0,-7 0,-11 160,0 320,0 480,0 0,4 0,7 0,11z"/>
    <path class="fil8" d="M480 284c-160,0 -320,0 -480,0 0,-4 0,-7 0,-11 160,0 320,0 480,0 0,4 0,7 0,11z"/>
    <path class="fil9" d="M480 305c-160,0 -320,0 -480,0 0,-4 0,-7 0,-11 160,0 320,0 480,0 0,4 0,7 0,11z"/>
    <path class="fil10" d="M480 326c-160,0 -320,0 -480,0 0,-4 0,-7 0,-11 160,0 320,0 480,0 0,4 0,7 0,11z"/>
    <path class="fil11" d="M480 347c-160,0 -320,0 -480,0 0,-4 0,-7 0,-11 160,0 320,0 480,0 0,4 0,7 0,11z"/>
    <path class="fil12" d="M480 368c-160,0 -320,0 -480,0 0,-4 0,-7 0,-11 160,0 320,0 480,0 0,4 0,7 0,11z"/>
    <path class="fil13" d="M480 389c-160,0 -320,0 -480,0 0,-4 0,-7 0,-11 160,0 320,0 480,0 0,4 0,7 0,11z"/>
   </g>
   <polygon class="fil14" points="480,410 0,410 0,399 480,399 "/>
  </g>
 </g>
</svg>
