<?xml version="1.0" encoding="UTF-8"?>
<!DOCTYPE svg PUBLIC "-//W3C//DTD SVG 1.1//EN" "http://www.w3.org/Graphics/SVG/1.1/DTD/svg11.dtd">
<!-- Creator: CorelDRAW X7 -->
<svg xmlns="http://www.w3.org/2000/svg" xml:space="preserve" width="480px" height="420px" version="1.1" style="shape-rendering:geometricPrecision; text-rendering:geometricPrecision; image-rendering:optimizeQuality; fill-rule:evenodd; clip-rule:evenodd"
viewBox="0 0 480 420"
 xmlns:xlink="http://www.w3.org/1999/xlink">
 <defs>
  <style type="text/css">
   <![CDATA[
    .fil1 {fill:white}
    .fil0 {fill:white;fill-rule:nonzero}
   ]]>
  </style>
 </defs>
 <g id="Layer_x0020_1">
  <metadata id="CorelCorpID_0Corel-Layer"/>
  <path class="fil0" d="M175 137c2,2 2,6 0,8 -2,2 -6,2 -8,0l-63 -63c-2,-2 -2,-6 0,-8 3,-2 6,-2 9,0l62 63zm251 67c4,0 6,3 6,6 0,3 -2,6 -6,6l-37 0c-2,-4 -4,-8 -7,-12l44 0zm-50 12l-38 0c-4,0 -6,-3 -6,-6 0,-3 2,-6 6,-6l28 0c4,4 7,8 10,12zm-234 -12c4,0 6,3 6,6 0,3 -2,6 -6,6l-53 0c3,-4 6,-8 10,-11l1 -1 42 0zm-67 12l-21 0c-4,0 -6,-3 -6,-6 0,-3 2,-6 6,-6l30 0c-3,4 -6,8 -9,12zm292 -142c3,-2 6,-2 9,0 2,2 2,6 0,8l-63 63c-2,2 -6,2 -8,0 -2,-2 -2,-6 0,-8l62 -63zm-215 93c0,0 1,1 1,1 -7,0 -14,2 -21,4l-18 -8c-3,-1 -4,-4 -3,-7 1,-3 5,-5 8,-3l33 13zm134 -83c1,-3 4,-4 7,-3 3,1 5,5 3,8l-13 33c-1,3 -5,4 -8,3 -3,-1 -4,-5 -3,-8l14 -33zm75 70c3,-2 6,0 8,3 1,3 -1,6 -4,7l-27 12c-5,-1 -9,-1 -13,-2 -1,-3 0,-6 3,-7l33 -13zm-153 -37c1,3 0,7 -3,8 -3,1 -7,0 -8,-3l-13 -33c-2,-3 0,-6 3,-8 3,-1 6,0 8,4l13 32zm26 -93c0,-4 3,-6 6,-6 3,0 6,2 6,6l0 88c0,3 -3,6 -6,6 -3,0 -6,-3 -6,-6l0 -88zm6 260c2,0 4,0 6,0 0,-2 1,-4 1,-7 0,-3 1,-7 1,-10 0,-3 0,-5 -1,-7 0,-3 0,-5 0,-7l0 -1c-4,-20 -15,-39 -30,-52 -12,-10 -28,-18 -45,-20 -4,9 -6,19 -6,30 0,41 33,74 74,74zm18 -2c17,-4 32,-14 42,-28 -6,-2 -13,-3 -20,-3 -4,0 -9,0 -13,1 -3,1 -5,2 -8,3 0,1 0,2 0,4 0,2 1,5 1,8 0,4 -1,8 -1,12 0,1 -1,2 -1,3zm48 -38c5,-10 8,-22 8,-34 0,-8 -1,-16 -3,-23 -13,3 -24,9 -33,18 -10,9 -17,23 -18,37 1,0 3,-1 4,-1 6,-2 11,-2 16,-2 9,0 18,2 26,5zm0 -68c-12,-24 -37,-40 -66,-40 -26,0 -49,13 -62,33 18,3 34,11 47,22 11,10 20,22 26,35 4,-11 10,-21 18,-30 10,-10 23,-17 37,-20z"/>
  <path class="fil1" d="M332 302c0,-14 -6,-27 -15,-36 -10,-10 -23,-15 -37,-15 -4,0 -9,0 -13,1 -3,1 -5,2 -8,3 0,1 0,2 0,4 0,2 1,5 1,8 0,4 -1,8 -1,12 -1,4 -2,8 -3,12 0,3 -4,5 -7,4 -3,-1 -5,-4 -4,-7 1,-3 2,-7 2,-11 0,-3 1,-7 1,-10 0,-3 0,-5 -1,-7 0,-3 0,-5 0,-7l0 -1c-4,-20 -15,-39 -30,-52 -15,-13 -35,-21 -56,-21 -25,0 -46,10 -62,26 -16,16 -26,37 -26,62 0,3 1,7 1,10 0,4 1,8 2,11 1,3 -1,6 -4,7 -1,0 -2,0 -3,0 -1,0 -2,0 -4,0 -1,-1 -2,-1 -3,-1 -8,0 -16,4 -21,9 -6,5 -9,13 -9,21 0,8 3,16 9,21 5,5 13,9 21,9l99 0 119 0c14,0 27,-6 37,-15 9,-10 15,-23 15,-37zm-7 -45c12,12 19,28 19,45 0,4 -1,7 -1,10l68 0c10,0 19,-4 26,-11 6,-6 11,-15 11,-26 0,-10 -5,-19 -11,-25 0,-1 0,-1 0,-1 -7,-6 -16,-10 -26,-10 -3,0 -6,0 -9,1 -2,0 -4,1 -5,2 0,0 0,1 0,1 0,2 0,4 0,6 0,3 0,6 0,9 -1,3 -1,7 -2,10 -1,3 -4,5 -7,4 -4,-1 -5,-4 -5,-7 1,-3 1,-5 2,-8 0,-3 0,-5 0,-8 0,-2 0,-3 0,-5 0,-2 0,-3 0,-5 0,0 0,0 -1,0 -2,-15 -10,-28 -21,-38 -11,-9 -25,-15 -41,-15 -17,0 -33,7 -44,19 -10,9 -17,23 -18,37 1,0 3,-1 4,-1 6,-2 11,-2 16,-2 18,0 34,7 45,18z"/>
 </g>
</svg>
