<?xml version="1.0" encoding="utf-8"?>
<!-- Generator: Adobe Illustrator 27.9.0, SVG Export Plug-In . SVG Version: 6.00 Build 0)  -->
<svg version="1.1" id="Layer_1" xmlns="http://www.w3.org/2000/svg" xmlns:xlink="http://www.w3.org/1999/xlink" x="0px" y="0px"
	 viewBox="0 0 480 420" style="enable-background:new 0 0 480 420;" xml:space="preserve">
<style type="text/css">
	.st0{fill:#FFFFFF;}
	.st1{fill:none;}
</style>
<path class="st0" d="M426,204h-88c-4,0-6,3-6,6s2,6,6,6h88c4,0,6-3,6-6S430,204,426,204z"/>
<path class="st0" d="M325,245c-1,3,0,7,3,8l3.2,1.4c-0.7-4.2-2-8.3-3.7-12.1C326.3,242.9,325.4,243.8,325,245z"/>
<path class="st0" d="M167.4,129.2L113,74c-3-2-6-2-9,0c-2,2-2,6,0,8l47.4,47.4c3.2-0.3,6.3-0.4,9.6-0.4
	C163.1,129,165.2,129.1,167.4,129.2z"/>
<path class="st0" d="M197,122c1,3,5,4,8,3s4-5,3-8l-13-32c-2-4-5-5-8-4c-3,2-5,5-3,8L197,122z"/>
<path class="st0" d="M361,267c3,1,6-1,8-4c1-3,0-6-4-7l-23.5-10.3c1.3,4.5,2.1,9.2,2.4,14L361,267z"/>
<path class="st1" d="M254,228c0-5-1-10-2-15l-1,38C253,243,254,236,254,228z"/>
<path class="st0" d="M256.4,204.3c7.3-2.9,15-4.3,23.6-4.3c12.2,0,23.9,3.4,34,9.7c-0.1-40.9-33.1-73.7-74-73.7
	c-10.7,0-20.8,2.2-29.9,6.3c5.3,3.1,10.3,6.6,15,10.7C240.6,166.5,251.5,184.5,256.4,204.3z"/>
<path class="st0" d="M334.5,296.5c-2.1,3.3-4.4,6.5-7,9.4L367,346c3,2,6,2,9,0c2-2,2-6,0-8L334.5,296.5z"/>
<path class="st0" d="M361,154l-33,13c-3,1-4,5-3,8s5,4,8,3l32-14c3-1,5-4,4-7C367,154,364,152,361,154z"/>
<path class="st0" d="M275,125c3,1,7,0,8-3l13-33c2-3,0-7-3-8s-6,0-7,3l-14,33C271,120,272,124,275,125z"/>
<path class="st0" d="M313,145l63-63c2-2,2-6,0-8c-3-2-6-2-9,0l-62,63c-2,2-2,6,0,8S311,147,313,145z"/>
<path class="st0" d="M240,118c3,0,6-3,6-6V24c0-4-3-6-6-6s-6,2-6,6v88C234,115,237,118,240,118z"/>
<path class="st0" d="M327.5,242.3c-3.3-7.4-8.4-13.8-14.7-18.8c-9-7.2-20.4-11.5-32.8-11.5c-7.9,0-14.7,1.4-21.2,4.3
	c0.7,3.8,1.2,7.7,1.2,11.7c0,8.1-1,15.7-3.2,24.5c-0.8,3.2-4.1,5.2-7.3,4.4c-3.2-0.8-5.2-4.1-4.4-7.3c2-7.9,2.8-14.4,2.8-21.5
	c0-4.4-0.9-9-1.9-13.8v-0.1c0-0.1,0-0.1,0-0.2c-4.6-28.7-23.5-52.6-48.5-64.6c-6.7-3.2-13.8-5.6-21.2-6.9c-4.3-0.8-8.8-1.3-13.3-1.4
	c-0.7,0-1.4,0-2,0c-16.9,0-32.5,4.5-45.8,12.3c-1.1,0.7-2.2,1.4-3.3,2.1C88.3,170.9,73,197.3,73,228c0,7.2,0.8,13.6,2.8,21.5
	c0.6,2.3-0.2,4.7-2.1,6.1c-1.8,1.5-4.3,1.7-6.4,0.7c-0.8-0.4-3.6-0.4-5.3-0.4c-16.5,0-30,13-30,29c0,16.8,13.2,30,30,30h218
	c15.5,0,29.5-6.9,39.1-17.7c2.6-2.9,4.8-6.1,6.7-9.5c4-7.4,6.3-15.8,6.3-24.7c0-2.9-0.3-5.8-0.8-8.6
	C330.5,250.2,329.2,246.1,327.5,242.3z"/>
<path class="st0" d="M518.5,333.8c0-11.2-9.3-20.3-20.7-20.3c-2.8,0-5.3,0.4-7.6,1.3c0.2,1.4,0.4,2.8,0.4,4.2
	c0,3.4-0.4,6.7-1.4,10.6c-0.5,2-2.6,3.3-4.6,2.8s-3.3-2.6-2.8-4.6c0.8-3.3,1.2-5.9,1.2-8.8c0-1.5-0.3-3.1-0.6-4.9l-0.2-0.8l0,0l0,0
	l0,0l0,0l0,0v-0.1c-2.7-17-17.6-29.7-34.7-29.7c-20.1,0-35.9,15.6-35.9,35.5c0,2.9,0.4,5.5,1.2,8.7c0.4,1.4-0.1,2.9-1.3,3.9
	c-1.1,0.9-2.6,1.1-3.9,0.6c-0.3-0.1-1.3-0.1-1.9-0.1c-6.3,0-11.4,4.9-11.4,11c0,6.4,5,11.4,11.4,11.4h92
	C509.2,354.5,518.5,345.2,518.5,333.8z"/>
</svg>
