<?xml version="1.0" encoding="UTF-8"?>
<svg id="Layer_1" xmlns="http://www.w3.org/2000/svg" version="1.1" viewBox="0 0 480 432.02">
  <!-- Generator: Adobe Illustrator 29.4.0, SVG Export Plug-In . SVG Version: 2.1.0 Build 152)  -->
  <defs>
    <style>
      .st0 {
        stroke: #000;
        stroke-linecap: round;
        stroke-linejoin: round;
        stroke-width: 11.7px;
      }

      .st0, .st1, .st2 {
        fill: #fff;
      }

      .st0, .st2 {
        fill-rule: evenodd;
      }
    </style>
  </defs>
  <path id="b" class="st2" d="M376,338c2,2,2,6,0,8-3,2-6,2-9,0l-62-63c-2-2-2-6,0-8s6-2,8,0l63,63ZM175,137c2,2,2,6,0,8s-6,2-8,0l-63-63c-2-2-2-6,0-8,3-2,6-2,9,0l62,63ZM426,204c4,0,6,3,6,6s-2,6-6,6h-88c-4,0-6-3-6-6s2-6,6-6h88ZM142,204c4,0,6,3,6,6s-2,6-6,6H54c-4,0-6-3-6-6s2-6,6-6h88ZM367,74c3-2,6-2,9,0,2,2,2,6,0,8l-63,63c-2,2-6,2-8,0s-2-6,0-8l62-63ZM167,275c2-2,6-2,8,0s2,6,0,8l-62,63c-3,2-6,2-9,0-2-2-2-6,0-8l63-63ZM365,256c4,1,5,4,4,7-2,3-5,5-8,4l-33-14c-3-1-4-5-3-8s5-4,8-3l32,14ZM152,167c3,2,4,5,3,8s-5,4-8,3l-33-14c-3-1-4-4-3-7s5-5,8-3l33,13ZM286,84c1-3,4-4,7-3s5,5,3,8l-13,33c-1,3-5,4-8,3s-4-5-3-8l14-33ZM197,298c1-3,5-4,8-3s4,5,3,8l-14,33c-1,3-4,4-7,3s-5-5-4-8l14-33ZM361,154c3-2,6,0,8,3,1,3-1,6-4,7l-32,14c-3,1-7,0-8-3s0-7,3-8l33-13ZM147,242c3-1,7,0,8,3s0,7-3,8l-33,14c-3,1-6-1-8-4-1-3,0-6,3-7l33-14ZM296,331c2,3,0,7-3,8s-6,0-7-3l-14-33c-1-3,0-7,3-8s7,0,8,3l13,33ZM208,117c1,3,0,7-3,8s-7,0-8-3l-13-33c-2-3,0-6,3-8,3-1,6,0,8,4l13,32ZM234,24c0-4,3-6,6-6s6,2,6,6v88c0,3-3,6-6,6s-6-3-6-6V24ZM234,308c0-3,3-6,6-6s6,3,6,6v88c0,4-3,6-6,6s-6-2-6-6v-88ZM240,284c41,0,74-33,74-74s-33-74-74-74-74,33-74,74,33,74,74,74Z"/>
  <g id="c">
    <path id="a" class="st0" d="M429.7,270.95c0-20.15-16.9-37.05-37.7-37.05-6.5,0-12.35,1.3-18.2,4.55-4.55-28.6-29.25-50.7-59.15-50.7-33.8,0-61.1,26.65-61.1,60.45,0,5.2.65,9.75,1.95,14.95-1.3-.65-3.25-.65-5.2-.65-13,0-23.4,10.4-23.4,22.75,0,13,10.4,23.4,23.4,23.4h141.7c20.8,0,37.7-16.9,37.7-37.7ZM373.15,263.15c1.3-5.2,1.95-9.75,1.95-14.95,0-3.25-.65-6.5-1.3-9.75"/>
  </g>
  <path d="M256,420.4c-1.14,0-2.29-.32-3.3-.99-2.54-1.68-3.43-4.99-2.06-7.71l38.01-75.3h-21.45c-1.98,0-3.83-.97-4.95-2.6-1.12-1.63-1.36-3.71-.65-5.55l33.6-87.2c.89-2.32,3.12-3.84,5.6-3.84h41.6c2.08,0,4.01,1.08,5.1,2.85s1.19,3.98.26,5.84l-29.26,58.52h24.69c2.33,0,4.45,1.35,5.44,3.46s.66,4.61-.84,6.39l-87.2,104c-1.18,1.41-2.88,2.14-4.6,2.14h0Z"/>
  <path class="st1" d="M342.4,243.2h0M342.4,243.2l-33.6,67.2h34.4l-87.2,104,42.4-84h-31.2l33.6-87.2h41.6M342.4,231.2h-41.6c-4.96,0-9.41,3.05-11.2,7.69l-33.6,87.2c-1.42,3.69-.93,7.84,1.3,11.11,2.24,3.26,5.94,5.21,9.89,5.21h11.7l-33.61,66.59c-2.75,5.44-.98,12.07,4.11,15.43,2.02,1.33,4.32,1.98,6.6,1.98,3.44,0,6.84-1.48,9.2-4.29l87.2-104c3-3.57,3.65-8.56,1.68-12.78-1.97-4.23-6.21-6.93-10.87-6.93h-14.98l24.78-49.55c.9-1.68,1.41-3.6,1.41-5.65,0-6.63-5.37-12-12-12h-.01ZM342.4,255.2h0Z"/>
</svg>