<?xml version="1.0" encoding="UTF-8"?>
<!DOCTYPE svg PUBLIC "-//W3C//DTD SVG 1.1//EN" "http://www.w3.org/Graphics/SVG/1.1/DTD/svg11.dtd">
<!-- Creator: CorelDRAW X7 -->
<svg xmlns="http://www.w3.org/2000/svg" xml:space="preserve" width="480px" height="420px" version="1.1" style="shape-rendering:geometricPrecision; text-rendering:geometricPrecision; image-rendering:optimizeQuality; fill-rule:evenodd; clip-rule:evenodd"
viewBox="0 0 480 420"
 xmlns:xlink="http://www.w3.org/1999/xlink">
 <defs>
  <style type="text/css">
   <![CDATA[
    .str0 {stroke:#FEFEFE;stroke-width:8.85827;stroke-linecap:round;stroke-linejoin:round}
    .str1 {stroke:#FEFEFE;stroke-width:5.90551;stroke-linecap:round;stroke-linejoin:round}
    .str2 {stroke:#FEFEFE;stroke-width:2.95276;stroke-linecap:round;stroke-linejoin:round}
    .fil0 {fill:none}
    .fil1 {fill:white}
    .fil2 {fill:white;fill-rule:nonzero}
   ]]>
  </style>
   <mask id="id0">
  <linearGradient id="id1" gradientUnits="userSpaceOnUse" x1="280.044" y1="212.872" x2="199.956" y2="-8.08583">
   <stop offset="0" style="stop-opacity:1; stop-color:white"/>
   <stop offset="1" style="stop-opacity:0; stop-color:white"/>
  </linearGradient>
    <rect style="fill:url(#id1)" x="-1" y="-1" width="482" height="207"/>
   </mask>
 </defs>
 <g id="Layer_x0020_1">
  <metadata id="CorelCorpID_0Corel-Layer"/>
  <g id="_367916080">
   <path class="fil0 str0" d="M416 59l-7 23m15 -8l-23 -6"/>
   <path class="fil0 str1" d="M90 105l-12 45m29 -16l-45 -12"/>
   <path class="fil0 str2" d="M282 13l-12 45m28 -16l-45 -12"/>
   <path class="fil0 str0" d="M59 58l-6 23m14 -9l-23 -6"/>
   <path class="fil0 str2" d="M419 135l-12 45m29 -16l-45 -12"/>
  </g>
  <path class="fil1" d="M254 69c-4,0 -9,0 -14,0 -70,0 -129,51 -140,119 17,-13 38,-20 61,-20 19,0 38,5 53,15 6,-39 23,-71 47,-90 7,-2 9,-21 -7,-24zm-155 136c0,2 0,3 0,5 0,78 63,141 141,141 5,0 9,0 13,0 18,-3 14,-21 8,-25 -29,-22 -49,-66 -49,-116 0,-5 0,-9 1,-13 -15,-11 -33,-18 -52,-18 -25,0 -46,10 -62,26l0 0z"/>
  <path class="fil1" d="M332 302c0,-14 -6,-27 -15,-36 -10,-10 -23,-15 -37,-15 -4,0 -9,0 -13,1 -3,1 -5,2 -8,3 0,1 0,2 0,4 0,2 1,5 1,8 0,4 -1,8 -1,12 -1,4 -2,8 -3,12 0,3 -4,5 -7,4 -3,-1 -5,-4 -4,-7 1,-3 2,-7 2,-11 0,-3 1,-7 1,-10 0,-3 0,-5 -1,-7 0,-3 0,-5 0,-7l0 -1c-4,-20 -15,-39 -30,-52 -15,-13 -35,-21 -56,-21 -25,0 -46,10 -62,26 -16,16 -26,37 -26,62 0,3 1,7 1,10 0,4 1,8 2,11 1,3 -1,6 -4,7 -1,0 -2,0 -3,0 -1,0 -2,0 -4,0 -1,-1 -2,-1 -3,-1 -8,0 -16,4 -21,9 -6,5 -9,13 -9,21 0,8 3,16 9,21 5,5 13,9 21,9l99 0 119 0c14,0 27,-6 37,-15 9,-10 15,-23 15,-37zm-7 -45c12,12 19,28 19,45 0,4 -1,7 -1,10l68 0c10,0 19,-4 26,-11 6,-6 11,-15 11,-26 0,-10 -5,-19 -11,-25 0,-1 0,-1 0,-1 -7,-6 -16,-10 -26,-10 -3,0 -6,0 -9,1 -2,0 -4,1 -5,2 0,0 0,1 0,1 0,2 0,4 0,6 0,3 0,6 0,9 -1,3 -1,7 -2,10 -1,3 -4,5 -7,4 -4,-1 -5,-4 -5,-7 1,-3 1,-5 2,-8 0,-3 0,-5 0,-8 0,-2 0,-3 0,-5 0,-2 0,-3 0,-5 0,0 0,0 -1,0 -2,-15 -10,-28 -21,-38 -11,-9 -25,-15 -41,-15 -17,0 -33,7 -44,19 -10,9 -17,23 -18,37 1,0 3,-1 4,-1 6,-2 11,-2 16,-2 18,0 34,7 45,18z"/>
  <path class="fil2" style="mask:url(#id0)" d="M480 56c-5,0 -10,1 -15,1 5,4 10,8 15,12l0 17c-2,-2 -4,-4 -7,-5 -9,-8 -18,-15 -28,-22 -7,0 -15,1 -23,2 10,7 20,14 31,21 9,7 18,13 27,20l0 9c-4,1 -10,1 -13,-2 -11,-7 -22,-15 -33,-23 -11,-8 -22,-16 -33,-24 -8,1 -17,2 -25,3 12,7 24,15 36,22 11,8 23,16 35,23 3,2 3,6 -2,8 -4,1 -11,1 -15,-1 -12,-8 -25,-17 -38,-25 -13,-8 -27,-17 -40,-25 -9,0 -17,1 -26,2 14,8 27,16 41,24 14,8 27,16 41,24 4,3 3,6 -2,8 -4,2 -11,2 -15,0 -15,-9 -30,-18 -46,-27 -15,-9 -30,-18 -46,-27 -9,1 -19,2 -29,3 17,8 33,17 49,26 16,8 31,17 47,25 4,2 4,6 -1,8 -5,3 -13,3 -17,0 -18,-9 -35,-18 -53,-28 -18,-9 -36,-19 -54,-29 -10,1 -21,2 -31,3 19,9 38,18 56,28 18,9 37,18 55,27 4,2 4,6 -1,8 -6,3 -14,3 -19,1 -20,-10 -40,-20 -61,-30 -21,-11 -42,-21 -63,-31 -11,1 -23,2 -34,3 22,10 44,20 65,29 22,10 43,19 63,29 5,2 5,6 -1,9 -5,3 -14,3 -19,1 -24,-11 -47,-21 -71,-32 -25,-11 -49,-22 -74,-33 -12,1 -25,2 -37,3 26,11 51,21 76,32 24,10 49,20 73,30 5,2 5,6 -1,9 -6,3 -16,4 -22,2 -26,-11 -54,-23 -82,-34 -28,-11 -57,-23 -87,-35l-26 2 0 -48 15 -1c-5,-2 -10,-4 -15,-7l0 -20 7 3c17,7 34,15 51,23 15,-1 29,-1 43,-2 -15,-7 -31,-14 -46,-22 -16,-8 -32,-15 -48,-23 14,0 28,0 41,0 15,8 31,15 46,22 15,8 30,15 45,22 13,0 26,-1 39,-1 -13,-7 -27,-14 -40,-21 -14,-7 -28,-15 -42,-22 12,0 24,0 36,0 13,7 27,14 40,21 13,7 26,14 39,21 12,-1 24,-1 36,-1 -12,-7 -24,-14 -36,-20 -11,-7 -23,-14 -35,-21 10,0 21,0 31,0 12,7 23,13 35,20 11,7 22,13 34,20 11,-1 22,-1 32,-1 -10,-7 -20,-13 -30,-19 -10,-7 -21,-13 -31,-20 9,0 18,0 27,0 10,6 20,13 30,19 11,6 20,13 30,19 10,0 21,-1 30,-1 -8,-6 -17,-12 -26,-18 -9,-7 -18,-13 -27,-19 8,0 16,0 24,0 9,6 18,12 26,18 9,6 18,12 27,18 9,0 18,0 27,0 -7,-6 -15,-12 -23,-18 -8,-6 -15,-12 -23,-18 7,0 15,0 22,0 7,6 15,12 22,17 8,6 16,12 23,18 9,0 17,-1 26,-1 -7,-6 -14,-11 -20,-17 -7,-6 -14,-11 -20,-17 6,0 13,0 19,0 7,6 13,11 20,17 6,5 13,11 19,16l0 23zm-480 48c25,9 50,19 75,28 28,11 56,21 84,32 6,2 6,7 -1,10 -7,3 -17,4 -24,2 -30,-12 -62,-24 -95,-36 -13,-5 -26,-9 -39,-14l0 -22zm0 40c32,11 63,21 94,32 7,2 7,7 -1,11 -7,3 -18,4 -25,2 -23,-8 -45,-15 -68,-23l0 -22zm480 -134c-3,-4 -7,-7 -10,-10l10 0 0 10zm-480 172c8,3 15,5 23,7 7,3 7,8 -1,12 -6,3 -15,4 -22,4l0 -23z"/>
 </g>
</svg>
