<?xml version="1.0" encoding="UTF-8"?>
<svg id="Layer_1" xmlns="http://www.w3.org/2000/svg" version="1.1" viewBox="0 0 480 420">
  <!-- Generator: Adobe Illustrator 29.4.0, SVG Export Plug-In . SVG Version: 2.1.0 Build 152)  -->
  <defs>
    <style>
      .st0, .st1, .st2 {
        fill: #fff;
      }

      .st1, .st2 {
        fill-rule: evenodd;
      }

      .st2 {
        stroke: #000;
        stroke-linecap: round;
        stroke-linejoin: round;
        stroke-width: 12px;
      }
    </style>
  </defs>
  <path id="b" class="st1" d="M376,338c2,2,2,6,0,8-3,2-6,2-9,0l-62-63c-2-2-2-6,0-8s6-2,8,0l63,63ZM175,137c2,2,2,6,0,8s-6,2-8,0l-63-63c-2-2-2-6,0-8,3-2,6-2,9,0l62,63ZM426,204c4,0,6,3,6,6s-2,6-6,6h-88c-4,0-6-3-6-6s2-6,6-6h88ZM367,74c3-2,6-2,9,0,2,2,2,6,0,8l-63,63c-2,2-6,2-8,0s-2-6,0-8l62-63ZM365,256c4,1,5,4,4,7-2,3-5,5-8,4l-33-14c-3-1-4-5-3-8s5-4,8-3l32,14ZM152,167c3,2,4,5,3,8s-5,4-8,3l-33-14c-3-1-4-4-3-7s5-5,8-3l33,13ZM286,84c1-3,4-4,7-3s5,5,3,8l-13,33c-1,3-5,4-8,3s-4-5-3-8l14-33ZM361,154c3-2,6,0,8,3,1,3-1,6-4,7l-32,14c-3,1-7,0-8-3s0-7,3-8l33-13ZM208,117c1,3,0,7-3,8s-7,0-8-3l-13-33c-2-3,0-6,3-8,3-1,6,0,8,4l13,32ZM234,24c0-4,3-6,6-6s6,2,6,6v88c0,3-3,6-6,6s-6-3-6-6V24ZM269,278c27-11,45-37,45-68,0-41-33-74-74-74s-74,33-74,74v7c12,2,24,8,33,16,11,10,20,23,24,38,1-1,3-1,4-2,4-1,8-1,12-1,11,0,22,4,30,10Z"/>
  <g id="c">
    <path id="a" class="st2" d="M338,263c0-31-26-57-58-57-10,0-19,2-28,7-7-44-45-78-91-78-52,0-94,41-94,93,0,8,1,15,3,23-2-1-5-1-8-1-20,0-36,16-36,35,0,20,16,36,36,36h218c32,0,58-26,58-58ZM251,251c2-8,3-15,3-23,0-5-1-10-2-15"/>
  </g>
  <g id="d">
    <path d="M95,403c-.95,0-1.9-.27-2.75-.83-2.12-1.4-2.86-4.16-1.71-6.43l49.34-97.75h-30.88c-1.65,0-3.19-.81-4.12-2.17-.93-1.36-1.14-3.09-.54-4.63l42-109c.74-1.93,2.6-3.2,4.67-3.2h52c1.73,0,3.34.9,4.25,2.37.91,1.47.99,3.31.22,4.86l-38.38,76.76h34.91c1.94,0,3.71,1.12,4.53,2.89s.55,3.84-.7,5.33l-109,130c-.98,1.17-2.4,1.79-3.83,1.79Z"/>
    <path class="st0" d="M203,184l-42,84h43l-109,130,53-105h-39l42-109h52M203,174h-52c-4.14,0-7.84,2.55-9.33,6.4l-42,109c-1.18,3.08-.78,6.54,1.09,9.25,1.86,2.72,4.95,4.34,8.24,4.34h22.75l-45.68,90.49c-2.29,4.53-.82,10.06,3.43,12.86,1.69,1.11,3.6,1.65,5.5,1.65,2.87,0,5.7-1.23,7.67-3.58l109-130c2.5-2.98,3.04-7.13,1.4-10.65-1.64-3.52-5.18-5.77-9.06-5.77h-26.82l34.76-69.53c1.55-3.1,1.38-6.78-.44-9.73-1.82-2.95-5.04-4.74-8.51-4.74h0Z"/>
  </g>
</svg>