<?xml version="1.0" encoding="UTF-8"?>
<!DOCTYPE svg PUBLIC "-//W3C//DTD SVG 1.1//EN" "http://www.w3.org/Graphics/SVG/1.1/DTD/svg11.dtd">
<!-- Creator: CorelDRAW X7 -->
<svg xmlns="http://www.w3.org/2000/svg" xml:space="preserve" width="480px" height="420px" version="1.1" style="shape-rendering:geometricPrecision; text-rendering:geometricPrecision; image-rendering:optimizeQuality; fill-rule:evenodd; clip-rule:evenodd"
viewBox="0 0 480 420"
 xmlns:xlink="http://www.w3.org/1999/xlink">
 <defs>
  <style type="text/css">
   <![CDATA[
    .str0 {stroke:#FEFEFE;stroke-width:11.811;stroke-linecap:round}
    .fil2 {fill:none}
    .fil1 {fill:white}
    .fil0 {fill:white;fill-rule:nonzero}
   ]]>
  </style>
 </defs>
 <g id="Layer_x0020_1">
  <metadata id="CorelCorpID_0Corel-Layer"/>
  <path class="fil0" d="M376 338c2,2 2,6 0,8 -3,2 -6,2 -9,0l-40 -40c3,-3 5,-6 7,-10l42 42zm-225 -209l-47 -47c-2,-2 -2,-6 0,-8 3,-2 6,-2 9,0l54 55c-2,0 -4,0 -6,0 -4,0 -7,0 -10,0zm275 75c4,0 6,3 6,6 0,3 -2,6 -6,6l-88 0c-4,0 -6,-3 -6,-6 0,-3 2,-6 6,-6l88 0zm-59 -130c3,-2 6,-2 9,0 2,2 2,6 0,8l-63 63c-2,2 -6,2 -8,0 -2,-2 -2,-6 0,-8l62 -63zm-2 182c4,1 5,4 4,7 -2,3 -5,5 -8,4l-17 -8c-1,-4 -2,-9 -3,-13l24 10zm-79 -172c1,-3 4,-4 7,-3 3,1 5,5 3,8l-13 33c-1,3 -5,4 -8,3 -3,-1 -4,-5 -3,-8l14 -33zm75 70c3,-2 6,0 8,3 1,3 -1,6 -4,7l-32 14c-3,1 -7,0 -8,-3 -1,-3 0,-7 3,-8l33 -13zm-65 177c2,3 0,7 -3,8 -3,1 -6,0 -7,-3l-4 -9c4,0 8,-1 12,-2l2 6zm-88 -214c1,3 0,7 -3,8 -3,1 -7,0 -8,-3l-13 -33c-2,-3 0,-6 3,-8 3,-1 6,0 8,4l13 32zm26 -93c0,-4 3,-6 6,-6 3,0 6,2 6,6l0 88c0,3 -3,6 -6,6 -3,0 -6,-3 -6,-6l0 -88zm80 186c0,-41 -33,-74 -74,-74 -11,0 -21,2 -30,6 5,3 10,7 15,10 15,14 27,32 32,52 2,-1 5,-1 7,-2 6,-1 11,-2 16,-2 13,0 24,4 34,10z"/>
  <path class="fil1" d="M332 263c0,-14 -6,-27 -15,-36 -10,-9 -23,-15 -37,-15 -4,0 -9,0 -13,1 -3,1 -5,2 -8,3 0,2 0,3 0,4 0,3 1,5 1,8 0,4 -1,8 -1,12 -1,4 -2,8 -3,12 0,3 -4,5 -7,4 -3,0 -5,-4 -4,-7 1,-3 2,-7 2,-10 0,-4 1,-8 1,-11 0,-3 0,-5 -1,-7 0,-3 0,-5 0,-7l0 0c-4,-21 -15,-40 -30,-53 -15,-13 -35,-20 -56,-20 -25,0 -46,9 -62,25 -16,16 -26,38 -26,62 0,3 1,7 1,11 0,3 1,7 2,10 1,3 -1,7 -4,7 -1,1 -2,1 -3,0 -1,0 -2,0 -4,0 -1,0 -2,0 -3,0 -8,0 -16,3 -21,8 -6,6 -9,13 -9,21 0,9 3,16 9,21 5,6 13,9 21,9l61 0 5 -12 -34 -1 48 -130 79 1 -40 83 49 0 -52 59 102 0c14,0 27,-6 37,-15 9,-9 15,-22 15,-37z"/>
  <polygon class="fil0" points="95,398 148,293 109,293 151,184 203,184 161,268 204,268 "/>
  <g id="_33720880">
   <line class="fil2 str0" x1="244" y1="400" x2="250" y2= "345" />
   <line class="fil2 str0" x1="202" y1="400" x2="208" y2= "345" />
  </g>
 </g>
</svg>
