<?xml version="1.0" encoding="UTF-8"?>
<!DOCTYPE svg PUBLIC "-//W3C//DTD SVG 1.1//EN" "http://www.w3.org/Graphics/SVG/1.1/DTD/svg11.dtd">
<!-- Creator: CorelDRAW X7 -->
<svg xmlns="http://www.w3.org/2000/svg" xml:space="preserve" width="480px" height="420px" version="1.1" style="shape-rendering:geometricPrecision; text-rendering:geometricPrecision; image-rendering:optimizeQuality; fill-rule:evenodd; clip-rule:evenodd"
viewBox="0 0 480 420"
 xmlns:xlink="http://www.w3.org/1999/xlink">
 <defs>
  <style type="text/css">
   <![CDATA[
    .str3 {stroke:#FEFEFE;stroke-width:11.811;stroke-linecap:round}
    .str0 {stroke:#FEFEFE;stroke-width:8.85827;stroke-linecap:round;stroke-linejoin:round}
    .str1 {stroke:#FEFEFE;stroke-width:5.90551;stroke-linecap:round;stroke-linejoin:round}
    .str2 {stroke:#FEFEFE;stroke-width:2.95276;stroke-linecap:round;stroke-linejoin:round}
    .fil1 {fill:none}
    .fil0 {fill:white}
    .fil2 {fill:white;fill-rule:nonzero}
   ]]>
  </style>
 </defs>
 <g id="Layer_x0020_1">
  <metadata id="CorelCorpID_0Corel-Layer"/>
  <path class="fil0" d="M254 69c-4,0 -9,0 -14,0 -52,0 -97,28 -122,69 13,-6 27,-9 43,-9 23,0 44,8 61,21 9,-24 22,-44 39,-57 7,-2 9,-21 -7,-24zm-102 72c-1,0 -2,0 -2,0 0,0 1,0 2,0z"/>
  <g id="_363870760">
   <path class="fil1 str0" d="M416 59l-7 23m15 -8l-23 -6"/>
   <path class="fil1 str1" d="M90 105l-12 45m29 -16l-45 -12"/>
   <path class="fil1 str2" d="M282 13l-12 45m28 -16l-45 -12"/>
   <path class="fil1 str0" d="M59 58l-6 23m14 -9l-23 -6"/>
   <path class="fil1 str2" d="M419 135l-12 45m29 -16l-45 -12"/>
  </g>
  <polygon class="fil2" points="95,398 148,293 109,293 151,184 203,184 161,268 204,268 "/>
  <path class="fil0" d="M332 263c0,-14 -6,-27 -15,-36 -10,-9 -23,-15 -37,-15 -4,0 -9,0 -13,1 -3,1 -5,2 -8,3 0,2 0,3 0,4 0,3 1,5 1,8 0,4 -1,8 -1,12 -1,4 -2,8 -3,12 0,3 -4,5 -7,4 -3,0 -5,-4 -4,-7 1,-3 2,-7 2,-10 0,-4 1,-8 1,-11 0,-3 0,-5 -1,-7 0,-3 0,-5 0,-7l0 0c-4,-21 -15,-40 -30,-53 -15,-13 -35,-20 -56,-20 -25,0 -46,9 -62,25 -16,16 -26,38 -26,62 0,3 1,7 1,11 0,3 1,7 2,10 1,3 -1,7 -4,7 -1,1 -2,1 -3,0 -1,0 -2,0 -4,0 -1,0 -2,0 -3,0 -8,0 -16,3 -21,8 -6,6 -9,13 -9,21 0,9 3,16 9,21 5,6 13,9 21,9l61 0 5 -12 -34 -1 48 -130 79 1 -40 83 49 0 -52 59 102 0c14,0 27,-6 37,-15 9,-9 15,-22 15,-37z"/>
  <g id="_363860944">
   <line class="fil1 str3" x1="159" y1="400" x2="166" y2= "345" />
   <line class="fil1 str3" x1="244" y1="400" x2="251" y2= "345" />
   <line class="fil1 str3" x1="202" y1="400" x2="208" y2= "345" />
  </g>
 </g>
</svg>
