<?xml version="1.0" encoding="UTF-8"?>
<!DOCTYPE svg PUBLIC "-//W3C//DTD SVG 1.1//EN" "http://www.w3.org/Graphics/SVG/1.1/DTD/svg11.dtd">
<!-- Creator: CorelDRAW X7 -->
<svg xmlns="http://www.w3.org/2000/svg" xml:space="preserve" width="480px" height="420px" version="1.1" style="shape-rendering:geometricPrecision; text-rendering:geometricPrecision; image-rendering:optimizeQuality; fill-rule:evenodd; clip-rule:evenodd"
viewBox="0 0 480 420"
 xmlns:xlink="http://www.w3.org/1999/xlink">
 <defs>
  <style type="text/css">
   <![CDATA[
    .str0 {stroke:#FEFEFE;stroke-width:11.811;stroke-linecap:round}
    .fil2 {fill:none}
    .fil0 {fill:white}
    .fil1 {fill:white;fill-rule:nonzero}
   ]]>
  </style>
 </defs>
 <g id="Layer_x0020_1">
  <metadata id="CorelCorpID_0Corel-Layer"/>
  <path class="fil0" d="M258 259l-54 0c-11,0 -20,-5 -27,-11 -7,-7 -11,-17 -11,-27 0,-11 4,-21 11,-27 7,-7 16,-12 27,-12l0 0c0,-1 0,-1 0,-2 -1,-4 -1,-8 -1,-12 0,-7 1,-15 3,-22 -14,-7 -29,-11 -45,-11 -52,0 -94,41 -94,93 0,8 1,15 3,23 -2,-1 -5,-1 -8,-1 -20,0 -36,16 -36,35 0,20 16,36 36,36l99 0 78 0c0,-1 0,-1 0,-2 0,-7 2,-14 7,-19l-3 0 15 -41zm20 -53c-9,0 -18,3 -26,7 -3,-24 -17,-45 -36,-60 -1,5 -1,10 -1,15 0,4 0,7 1,10 0,3 1,7 1,10 1,3 -1,6 -4,7 -1,0 -2,0 -3,0 -1,0 -2,-1 -3,-1 -1,0 -2,0 -3,0 -7,0 -14,3 -19,8 -4,5 -7,11 -7,19 0,7 3,13 7,18 5,5 12,8 19,8l48 0 11 0 15 -41zm-26 41c1,-6 2,-13 2,-19 0,-5 -1,-10 -2,-15l0 34z"/>
  <path class="fil0" d="M449 201c0,-13 -6,-25 -14,-33 -8,-8 -20,-14 -33,-14 -4,0 -8,1 -11,2 -3,0 -5,1 -8,2 1,1 1,2 1,3 0,3 0,5 0,7 0,4 0,8 -1,12 0,3 -1,7 -2,11 -1,3 -4,5 -7,4 -3,-1 -5,-4 -4,-7 1,-3 1,-7 2,-10 0,-3 0,-6 0,-10 0,-2 0,-4 0,-6 0,-2 0,-4 -1,-6l0 0 0 0c-3,-19 -13,-36 -26,-48 -14,-11 -32,-18 -51,-18 -22,0 -42,9 -56,23 -14,14 -23,34 -23,55 0,4 0,7 1,10 0,3 1,7 1,10 1,3 -1,6 -4,7 -1,0 -2,0 -3,0 -1,0 -2,-1 -3,-1 -1,0 -2,0 -3,0 -7,0 -14,3 -19,8 -4,5 -7,11 -7,19 0,7 3,13 7,18 5,5 12,8 19,8l59 0 30 -80 78 0 -22 46c12,3 22,8 30,15 6,5 12,12 16,19l7 0c13,0 25,-5 33,-14 8,-8 14,-20 14,-32z"/>
  <path class="fil1" d="M448 304c0,-9 -4,-17 -10,-23 -5,-6 -14,-10 -23,-10 -3,0 -5,1 -8,1 -1,1 -3,1 -4,2 0,0 0,0 0,1 0,2 0,3 0,5 0,3 0,6 0,9 -1,3 -1,5 -2,8 -1,3 -4,5 -7,4 -3,0 -5,-4 -4,-7 0,-2 1,-4 1,-7 0,-2 1,-4 1,-7 0,-1 0,-3 -1,-4 0,-2 0,-3 0,-5 0,0 0,0 0,0 -2,-14 -9,-25 -19,-34 -8,-6 -18,-11 -28,-13l-14 29 50 1 -75 83 30 0 80 0c9,0 18,-4 23,-10 6,-6 10,-14 10,-23zm-170 -3c-1,0 -2,0 -2,0 -1,1 -2,1 -3,0 -1,0 -2,0 -2,0 -1,0 -2,0 -2,0 -5,0 -10,2 -13,5 -3,3 -5,8 -5,13 0,5 2,9 5,13l0 0 0 0c2,2 4,3 7,4l15 -35z"/>
  <polygon class="fil1" points="242,399 298,290 258,290 301,177 355,177 311,264 356,264 "/>
  <g id="_282374032">
   <line class="fil2 str0" x1="123" y1="400" x2="130" y2= "344" />
   <line class="fil2 str0" x1="208" y1="400" x2="215" y2= "344" />
   <line class="fil2 str0" x1="166" y1="400" x2="172" y2= "344" />
  </g>
  <line class="fil2 str0" x1="293" y1="400" x2="297" y2= "366" />
  <line class="fil2 str0" x1="336" y1="400" x2="340" y2= "366" />
 </g>
</svg>
