<?xml version="1.0" encoding="UTF-8"?>
<!DOCTYPE svg PUBLIC "-//W3C//DTD SVG 1.1//EN" "http://www.w3.org/Graphics/SVG/1.1/DTD/svg11.dtd">
<!-- Creator: CorelDRAW X7 -->
<svg xmlns="http://www.w3.org/2000/svg" xml:space="preserve" width="480px" height="420px" version="1.1" style="shape-rendering:geometricPrecision; text-rendering:geometricPrecision; image-rendering:optimizeQuality; fill-rule:evenodd; clip-rule:evenodd"
viewBox="0 0 480 420"
 xmlns:xlink="http://www.w3.org/1999/xlink">
 <defs>
  <style type="text/css">
   <![CDATA[
    .str3 {stroke:#FEFEFE;stroke-width:11.811;stroke-linecap:round}
    .str0 {stroke:#FEFEFE;stroke-width:8.85827;stroke-linecap:round;stroke-linejoin:round}
    .str1 {stroke:#FEFEFE;stroke-width:5.90551;stroke-linecap:round;stroke-linejoin:round}
    .str2 {stroke:#FEFEFE;stroke-width:2.95276;stroke-linecap:round;stroke-linejoin:round}
    .fil0 {fill:none}
    .fil1 {fill:white}
    .fil2 {fill:white;fill-rule:nonzero}
   ]]>
  </style>
 </defs>
 <g id="Layer_x0020_1">
  <metadata id="CorelCorpID_0Corel-Layer"/>
  <g id="_367897720">
   <path class="fil0 str0" d="M416 59l-7 23m15 -8l-23 -6"/>
   <path class="fil0 str1" d="M90 105l-12 45m29 -16l-45 -12"/>
   <path class="fil0 str2" d="M282 13l-12 45m28 -16l-45 -12"/>
   <path class="fil0 str0" d="M59 58l-6 23m14 -9l-23 -6"/>
   <path class="fil0 str2" d="M419 135l-12 45m29 -16l-45 -12"/>
  </g>
  <path class="fil1" d="M306 218c-8,-4 -17,-6 -26,-6 -4,0 -9,0 -13,1 -3,1 -5,2 -8,3 0,2 0,3 0,4 0,3 1,5 1,8 0,4 -1,8 -1,12 -1,4 -2,8 -3,12 0,3 -4,5 -7,4 -3,0 -5,-4 -4,-7 1,-3 2,-7 2,-10 0,-4 1,-8 1,-11 0,-3 0,-5 -1,-7 0,-3 0,-5 0,-7l0 0c-4,-21 -15,-40 -30,-53 -15,-13 -35,-20 -56,-20 -25,0 -46,9 -62,25 -16,16 -26,38 -26,62 0,3 1,7 1,11 0,3 1,7 2,10 1,3 -1,7 -4,7 -1,1 -2,1 -3,0 -1,0 -2,0 -4,0 -1,0 -2,0 -3,0 -8,0 -16,3 -21,8 -6,6 -9,13 -9,21 0,9 3,16 9,21 5,6 13,9 21,9l99 0 78 0c1,-7 4,-13 9,-17 5,-5 11,-8 19,-9l0 0c0,-3 0,-6 0,-9 0,-19 7,-36 20,-48 5,-6 11,-10 19,-14z"/>
  <path class="fil2" d="M448 304c0,-9 -4,-17 -10,-23 -5,-6 -14,-10 -23,-10 -3,0 -5,1 -8,1 -1,1 -3,1 -4,2 0,0 0,0 0,1 0,2 0,3 0,5 0,3 0,6 0,9 -1,3 -1,5 -2,8 -1,3 -4,5 -7,4 -3,0 -5,-4 -4,-7 0,-2 1,-4 1,-7 0,-2 1,-4 1,-7 0,-1 0,-3 -1,-4 0,-2 0,-3 0,-5 0,0 0,0 0,0 -2,-14 -9,-25 -19,-34 -10,-8 -23,-13 -37,-13 -16,0 -30,6 -40,16 -10,10 -17,25 -17,40 0,3 0,5 1,7 0,3 0,5 1,7 1,3 -1,7 -4,7 -1,1 -2,1 -3,0 -1,0 -2,0 -2,0 -1,0 -2,0 -2,0 -5,0 -10,2 -13,5 -3,3 -5,8 -5,13 0,5 2,9 5,13l0 0 0 0c3,3 8,5 13,5l66 0 80 0c9,0 18,-4 23,-10 6,-6 10,-14 10,-23z"/>
  <g id="_367904560">
   <line class="fil0 str3" x1="217" y1="345" x2="208" y2= "393" />
   <line class="fil0 str3" x1="194" y1="353" x2="231" y2= "385" />
   <line class="fil0 str3" x1="189" y1="377" x2="235" y2= "361" />
  </g>
  <g id="_367891840">
   <line class="fil0 str3" x1="142" y1="366" x2="132" y2= "414" />
   <line class="fil0 str3" x1="118" y1="374" x2="155" y2= "406" />
   <line class="fil0 str3" x1="114" y1="398" x2="160" y2= "382" />
  </g>
 </g>
</svg>
