<?xml version="1.0" encoding="UTF-8"?>
<!DOCTYPE svg PUBLIC "-//W3C//DTD SVG 1.1//EN" "http://www.w3.org/Graphics/SVG/1.1/DTD/svg11.dtd">
<!-- Creator: CorelDRAW X7 -->
<svg xmlns="http://www.w3.org/2000/svg" xml:space="preserve" width="480px" height="420px" version="1.1" style="shape-rendering:geometricPrecision; text-rendering:geometricPrecision; image-rendering:optimizeQuality; fill-rule:evenodd; clip-rule:evenodd"
viewBox="0 0 480 420"
 xmlns:xlink="http://www.w3.org/1999/xlink">
 <defs>
  <style type="text/css">
   <![CDATA[
    .fil1 {fill:#FEFEFE}
    .fil0 {fill:white}
   ]]>
  </style>
   <mask id="id0">
  <linearGradient id="id1" gradientUnits="userSpaceOnUse" x1="238.83" y1="66.3283" x2="241.17" y2="303.437">
   <stop offset="0" style="stop-opacity:0; stop-color:white"/>
   <stop offset="0.380392" style="stop-opacity:-2.72549; stop-color:white"/>
   <stop offset="1" style="stop-opacity:0.419608; stop-color:white"/>
  </linearGradient>
    <rect style="fill:url(#id1)" x="-1" y="-51" width="482" height="472"/>
   </mask>
 </defs>
 <g id="Layer_x0020_1">
  <metadata id="CorelCorpID_0Corel-Layer"/>
  <polygon class="fil0" style="mask:url(#id0)" points="0,-50 480,-50 480,420 0,420 "/>
  <circle class="fil1" cx="336" cy="231" r="6"/>
  <circle class="fil1" cx="361" cy="301" r="11"/>
  <circle class="fil1" cx="335" cy="374" r="15"/>
  <circle class="fil1" cx="417" cy="153" r="11"/>
  <circle class="fil1" cx="425" cy="307" r="7"/>
  <circle class="fil1" cx="134" cy="237" r="6"/>
  <circle class="fil1" cx="77" cy="292" r="11"/>
  <circle class="fil1" cx="291" cy="313" r="15"/>
  <circle class="fil1" cx="60" cy="175" r="11"/>
  <circle class="fil1" cx="270" cy="206" r="7"/>
  <circle class="fil1" cx="95" cy="373" r="6"/>
  <circle class="fil1" cx="166" cy="390" r="11"/>
  <circle class="fil1" cx="199" cy="293" r="15"/>
  <circle class="fil1" cx="215" cy="193" r="11"/>
  <circle class="fil1" cx="253" cy="363" r="7"/>
 </g>
</svg>
