<?xml version="1.0" encoding="UTF-8"?>
<!DOCTYPE svg PUBLIC "-//W3C//DTD SVG 1.1//EN" "http://www.w3.org/Graphics/SVG/1.1/DTD/svg11.dtd">
<!-- Creator: CorelDRAW X7 -->
<svg xmlns="http://www.w3.org/2000/svg" xml:space="preserve" width="480px" height="420px" version="1.1" style="shape-rendering:geometricPrecision; text-rendering:geometricPrecision; image-rendering:optimizeQuality; fill-rule:evenodd; clip-rule:evenodd"
viewBox="0 0 480 420"
 xmlns:xlink="http://www.w3.org/1999/xlink">
 <defs>
  <style type="text/css">
   <![CDATA[
    .fil0 {fill:white}
   ]]>
  </style>
   <mask id="id0">
  <linearGradient id="id1" gradientUnits="userSpaceOnUse" x1="238.83" y1="66.3283" x2="241.17" y2="303.437">
   <stop offset="0" style="stop-opacity:0; stop-color:white"/>
   <stop offset="0.380392" style="stop-opacity:-1.72157; stop-color:white"/>
   <stop offset="1" style="stop-opacity:0.419608; stop-color:white"/>
  </linearGradient>
    <rect style="fill:url(#id1)" x="-1" y="-51" width="482" height="472"/>
   </mask>
 </defs>
 <g id="Layer_x0020_1">
  <metadata id="CorelCorpID_0Corel-Layer"/>
  <polygon class="fil0" style="mask:url(#id0)" points="0,-50 480,-50 480,420 0,420 "/>
  <path class="fil0" d="M96 253c246,28 432,-273 258,-198 233,-111 -10,261 -258,198z"/>
  <path class="fil0" d="M56 339c295,17 445,85 360,-11 32,52 -96,-3 -360,11z"/>
  <path class="fil0" d="M11 285c177,86 406,-57 405,-103 -27,42 -258,151 -405,103z"/>
  <circle class="fil0" cx="326" cy="288" r="6"/>
  <circle class="fil0" cx="378" cy="310" r="11"/>
  <circle class="fil0" cx="417" cy="265" r="15"/>
  <circle class="fil0" cx="436" cy="153" r="11"/>
  <circle class="fil0" cx="446" cy="294" r="7"/>
  <path class="fil0" d="M65 191c62,-17 79,-32 148,-17 -37,-34 -97,-21 -148,17z"/>
 </g>
</svg>
